<svg width="180" height="52" viewBox="0 0 180 52" fill="none" xmlns="http://www.w3.org/2000/svg">
  <rect width="180" height="52" fill="transparent"/>
  <text x="0" y="38" font-family="'Nunito', 'Poppins', 'Helvetica Neue', Arial, sans-serif" font-size="38" font-weight="700" fill="#0C1A2B">Da</text>
  <g transform="translate(95,4)">
    <path d="M36.5 0C30 7 24 11 24 18C24 21.8 25.8 24.5 28.2 27.6C29.4 29.1 30.6 30.6 31.5 32.3C32.7 34.6 33.5 37.2 33.5 40.5C33.5 46 30.8 50.5 25.6 51.8C20.7 53 16.6 50.2 14.2 47.6C9.9 43 8.8 36.4 12.3 31.6C13.7 29.7 15.8 28.2 18 27.1C20 26.1 22.3 25.5 24.5 24.9C27.4 24 30.2 23.2 31.8 21C33.6 18.5 33.5 14.8 31.3 11.1C29.3 7.8 25.9 4.5 21.2 2.4C15.1 -0.3 7.9 -0.5 0 1.9V-2.5C7.6 -4.6 15.3 -4.3 21.9 -1.4C27.4 1.1 31.7 5.2 34.3 9.6C37.4 14.7 37.8 20.8 35 25.2C32.5 29.1 28.6 30.4 24.9 31.4C22.4 32.1 19.9 32.7 17.9 33.7C15.8 34.8 14.3 36.3 13.4 37.6C11 41 12 45.4 14.7 48.7C16.5 50.8 19.3 52.2 22.7 51.3C26.2 50.4 28 46.9 28 43.3C28 40.8 27.3 38.6 26.3 36.6C25.5 35 24.4 33.7 23.2 32.3C20.4 28.8 17.5 25.2 17.5 19.9C17.5 11.8 23.5 6.4 29.6 0.3L36.5 0Z" fill="#0C1A2B"/>
    <path d="M12 13C17 11.5 22 12.5 25 17.5C28.5 23.5 25.5 28 21.5 29" stroke="#FFFFFF" stroke-width="4" stroke-linecap="round" stroke-linejoin="round"/>
  </g>
  <text x="132" y="38" font-family="'Nunito', 'Poppins', 'Helvetica Neue', Arial, sans-serif" font-size="38" font-weight="700" fill="#0C1A2B">a</text>
</svg>
